ply
format ascii 1.0
element vertex 42
property float32 x
property float32 y
property float32 z
element face 80
property list uint8 int32 vertex_indices
end_header
-0.034695 -2.656587 -0.525738 
1.207154 -0.612609 -0.850654 
1.107224 -1.309341 -0.447215 
0.401527 -1.213201 -0.850654 
-0.781253 -2.908631 -0.447215 
1.100000 0.002723 -1.000000 
1.537503 0.002723 -0.525736 
1.209092 0.612609 -0.850654 
1.109543 1.309341 -0.447215 
-0.103977 -1.213207 -0.525736 
0.485019 0.002723 -0.850652 
0.082555 0.002723 -0.447215 
-0.099878 1.213207 -0.525736 
0.404103 1.213201 -0.850654 
-0.776736 2.908631 -0.447215 
-0.030754 2.656587 -0.525738 
1.378919 -0.612612 0.000000 
1.380044 0.612612 0.000000 
1.230821 0.002723 0.447215 
-1.900000 -4.000000 0.000000 
0.145166 -2.656617 0.000000 
-0.498056 -2.908631 0.447215 
-0.154767 -0.612612 0.000000 
-1.030405 -2.656617 0.000000 
-0.354333 -1.309341 0.447215 
-1.026352 2.656617 0.000000 
-0.152858 0.612612 0.000000 
-0.350788 1.309341 0.447215 
0.149219 2.656617 0.000000 
-1.900000 4.000000 0.000000 
-0.492952 2.908631 0.447215 
0.812286 -1.213207 0.525736 
-0.856274 -2.656587 0.525738 
-0.046106 0.002723 0.525736 
-0.852013 2.656587 0.525738 
0.814156 1.213207 0.525736 
0.405170 -1.213201 0.850654 
0.985487 0.002723 0.850652 
0.523844 0.002723 1.000000 
0.120077 -0.612609 0.850654 
0.121794 0.612609 0.850654 
0.408204 1.213201 0.850654 
3 0 1 2 
3 1 0 3 
3 3 0 4 
3 3 5 1 
3 6 2 1 
3 1 7 6 
3 8 6 7 
3 1 5 7 
3 9 3 4 
3 3 9 10 
3 11 10 9 
3 10 5 3 
3 12 10 11 
3 10 12 13 
3 14 13 12 
3 13 5 10 
3 15 13 14 
3 13 15 7 
3 8 7 15 
3 7 5 13 
3 16 2 6 
3 6 17 16 
3 18 16 17 
3 17 6 8 
3 4 0 19 
3 0 20 19 
3 21 19 20 
3 20 0 2 
3 22 11 9 
3 9 23 22 
3 24 22 23 
3 23 9 4 
3 25 14 12 
3 12 26 25 
3 27 25 26 
3 26 12 11 
3 28 8 15 
3 15 29 28 
3 30 28 29 
3 29 15 14 
3 31 16 18 
3 16 31 20 
3 21 20 31 
3 20 2 16 
3 32 19 21 
3 19 32 23 
3 24 23 32 
3 23 4 19 
3 33 22 24 
3 22 33 26 
3 27 26 33 
3 26 11 22 
3 34 25 27 
3 25 34 29 
3 30 29 34 
3 29 14 25 
3 35 28 30 
3 28 35 17 
3 18 17 35 
3 17 8 28 
3 36 21 31 
3 31 37 36 
3 38 36 37 
3 37 31 18 
3 39 24 32 
3 32 36 39 
3 38 39 36 
3 36 32 21 
3 40 27 33 
3 33 39 40 
3 38 40 39 
3 39 33 24 
3 41 30 34 
3 34 40 41 
3 38 41 40 
3 40 34 27 
3 37 18 35 
3 35 41 37 
3 38 37 41 
3 41 35 30 
