ply
format ascii 1.0
element vertex 85
property float32 x
property float32 y
property float32 z
element face 166
property list uint8 int32 vertex_indices
end_header
1.769341 -1.633229 -0.058653 
3.999994 -1.652486 0.239652 
2.830660 -1.633229 1.658653 
2.830660 1.633229 1.658653 
3.999994 1.652486 0.239652 
1.769341 1.633229 -0.058653 
4.017297 0.000000 1.658653 
1.075914 -1.611413 1.569401 
1.075914 1.611413 1.569401 
2.300000 0.000000 2.720000 
-0.648606 -1.633229 1.759187 
0.314224 0.000000 2.688368 
-1.590798 0.000000 2.793709 
-0.648606 1.633229 1.759187 
-2.250558 -0.767551 0.697646 
-0.542187 -1.633229 -0.007741 
-0.542187 1.633229 -0.007741 
-2.250558 0.767551 0.697646 
-3.529063 -0.844014 1.145262 
-3.269007 0.000000 0.584505 
-3.529063 0.844014 1.145262 
-2.294694 -0.850640 1.915643 
-2.294694 0.850640 1.915643 
-3.490499 -1.242753 2.680207 
-3.490499 1.242753 2.680207 
-2.745987 0.000000 2.468428 
-4.907218 0.000000 0.826453 
-4.580469 -0.863177 1.083172 
-4.155933 0.000000 1.638936 
-4.580469 0.863177 1.083172 
-4.010584 -0.538668 0.647476 
-4.010584 0.538668 0.647476 
0.030846 -1.464613 -1.062082 
0.732506 -2.159935 -3.257933 
0.163809 -0.963996 -1.717236 
0.163809 0.963996 -1.717236 
0.732506 2.159935 -3.257933 
0.030846 1.464613 -1.062082 
0.545445 -1.142311 -0.509032 
0.545445 1.142311 -0.509032 
-0.798160 -1.226638 -0.785120 
-0.798160 1.226638 -0.785120 
-0.107445 0.000000 -0.154482 
-0.782400 -0.768078 -2.319821 
1.307642 0.021344 -3.264059 
-2.567070 -0.077773 -2.700104 
-2.567070 0.077773 -2.700104 
1.307642 -0.021344 -3.264059 
-0.782400 0.768078 -2.319821 
-0.610155 -1.282531 -2.368872 
-0.610155 1.282531 -2.368872 
3.564500 -1.440140 -2.407238 
4.537749 -2.170486 -3.251052 
3.940795 -1.464613 -1.106982 
3.940795 1.464613 -1.106982 
4.537749 2.170486 -3.251052 
3.564500 1.440140 -2.407238 
3.358598 -1.029934 -2.240680 
1.555885 -0.040181 -3.037259 
1.555885 0.040181 -3.037259 
3.358598 1.029934 -2.240680 
5.116188 -0.019735 -3.449145 
5.116188 0.019735 -3.449145 
3.212831 -1.066420 -0.701002 
3.212831 1.066420 -0.701002 
4.192703 -0.963996 -1.726213 
4.192703 0.963996 -1.726213 
4.529355 -1.009382 -0.408670 
4.529355 1.009382 -0.408670 
-1.403755 0.000000 0.030044 
-2.140991 0.000000 0.169147 
-0.647220 -0.461132 -1.003416 
-0.647220 0.461132 -1.003416 
4.917186 0.000000 0.176492 
4.148787 -0.388844 -1.546078 
4.148787 0.388844 -1.546078 
1.443478 0.000000 -0.547738 
2.734394 0.000000 -0.423466 
3.198643 -0.537163 -1.345405 
3.198643 0.537163 -1.345405 
3.825790 0.000000 -0.123487 
-2.589823 -3.076293 -2.829796 
-2.589823 3.076293 -2.829796 
1.506738 -2.997942 -3.046151 
1.506738 2.997942 -3.046151 
3 0 1 2 
3 3 4 5 
3 2 1 6 
3 6 4 3 
3 7 0 2 
3 3 5 8 
3 2 6 9 
3 9 6 3 
3 7 2 9 
3 9 3 8 
3 10 11 12 
3 12 11 13 
3 10 14 15 
3 16 17 13 
3 11 10 7 
3 8 13 11 
3 15 7 10 
3 13 8 16 
3 9 11 7 
3 8 11 9 
3 14 18 19 
3 19 20 17 
3 18 14 21 
3 22 17 20 
3 21 23 18 
3 20 24 22 
3 21 12 25 
3 25 12 22 
3 23 21 25 
3 25 22 24 
3 10 12 21 
3 22 12 13 
3 21 14 10 
3 13 17 22 
3 26 27 28 
3 28 29 26 
3 27 23 28 
3 28 24 29 
3 27 26 30 
3 31 26 29 
3 23 27 18 
3 20 29 24 
3 30 18 27 
3 29 20 31 
3 18 30 19 
3 19 31 20 
3 32 33 34 
3 35 36 37 
3 38 15 32 
3 37 16 39 
3 40 15 14 
3 17 16 41 
3 38 32 34 
3 35 37 39 
3 38 34 42 
3 42 35 39 
3 43 44 45 
3 46 47 48 
3 49 43 45 
3 46 48 50 
3 49 33 32 
3 37 36 50 
3 0 7 15 
3 16 8 5 
3 38 0 15 
3 16 5 39 
3 51 52 53 
3 54 55 56 
3 51 57 58 
3 59 60 56 
3 57 61 58 
3 59 62 60 
3 51 63 57 
3 60 64 56 
3 53 52 65 
3 66 55 54 
3 1 0 63 
3 64 5 4 
3 1 63 53 
3 54 64 4 
3 51 53 63 
3 64 54 56 
3 67 53 65 
3 66 54 68 
3 1 53 67 
3 68 54 4 
3 69 40 70 
3 70 41 69 
3 14 70 40 
3 41 70 17 
3 14 19 70 
3 70 19 17 
3 71 44 43 
3 48 47 72 
3 71 69 42 
3 42 69 72 
3 1 67 73 
3 73 68 4 
3 6 1 73 
3 73 4 6 
3 61 74 65 
3 66 75 62 
3 67 65 74 
3 75 66 68 
3 74 73 67 
3 68 73 75 
3 40 69 71 
3 72 69 41 
3 71 43 40 
3 41 48 72 
3 0 38 76 
3 76 39 5 
3 34 44 71 
3 72 47 35 
3 71 42 34 
3 35 42 72 
3 76 38 42 
3 42 39 76 
3 77 78 63 
3 64 79 77 
3 78 57 63 
3 64 60 79 
3 57 78 61 
3 62 79 60 
3 63 0 76 
3 76 5 64 
3 76 77 63 
3 64 77 76 
3 80 73 74 
3 75 73 80 
3 44 34 33 
3 36 35 47 
3 61 65 52 
3 55 66 62 
3 28 23 25 
3 25 24 28 
3 45 81 49 
3 50 82 46 
3 81 33 49 
3 50 36 82 
3 33 81 44 
3 47 82 36 
3 81 45 44 
3 47 46 82 
3 58 83 51 
3 56 84 59 
3 83 52 51 
3 56 55 84 
3 52 83 61 
3 62 84 55 
3 83 58 61 
3 62 59 84 
3 40 43 49 
3 50 48 41 
3 32 40 49 
3 50 41 37 
3 15 40 32 
3 37 41 16 
3 74 61 78 
3 79 62 75 
3 74 77 80 
3 80 77 75 
3 74 78 77 
3 77 79 75 
3 19 30 31 
3 26 31 30 
