ply
format ascii 1.0
element vertex 100
property float32 x
property float32 y
property float32 z
element face 196
property list uint8 int32 vertex_indices
end_header
0.216451 -0.392941 -0.989735 
1.327696 -0.578609 -0.880099 
0.241422 -1.012826 -0.590529 
0.241422 1.012826 -0.590529 
1.328044 0.578609 -0.880099 
0.216451 0.392941 -0.989735 
-0.671795 -1.039334 -0.800471 
-0.671795 1.039334 -0.800471 
-0.587748 -1.083605 -0.240221 
-0.587748 1.083605 -0.240221 
-0.799972 -0.000459 -1.093139 
1.510600 0.000000 -1.044153 
2.334080 -0.497385 -0.828299 
2.335962 0.497385 -0.828299 
0.281952 -1.128107 0.055398 
0.281952 1.128107 0.055398 
1.550464 -0.889919 -0.398901 
1.551118 0.889918 -0.398901 
1.399971 -0.935704 0.217923 
1.400378 0.935704 0.217923 
-1.636993 -0.809012 0.425646 
-0.783016 -0.889918 0.485461 
-1.493767 -0.324463 1.031851 
-1.493767 0.324463 1.031851 
-0.783016 0.889918 0.485461 
-1.636993 0.809012 0.425646 
-0.591711 -0.578292 0.970300 
-0.591711 0.578292 0.970300 
2.254636 -0.738962 -0.086393 
2.256181 0.738962 -0.086393 
0.324084 -0.889913 0.702727 
0.324084 0.889913 0.702727 
-0.735492 0.000000 1.130278 
1.634710 -0.549995 0.656833 
1.635529 0.549995 0.656833 
2.427890 0.000000 0.635600 
1.499772 0.000000 0.949824 
0.392043 -0.339913 1.144597 
0.392043 0.339913 1.144597 
0.398369 0.000000 1.950218 
0.965343 -0.251954 1.584951 
1.674245 0.000000 2.813636 
0.965343 0.251954 1.584951 
4.120056 -0.305177 -0.450713 
3.493977 -0.462958 -0.475649 
3.655832 0.000000 -0.758808 
3.497080 0.462958 -0.475649 
4.124536 0.303971 -0.450713 
2.948539 0.000000 -0.814144 
4.502183 0.000000 -0.231637 
3.959659 0.000000 -0.074403 
2.956307 -0.579320 -0.292893 
3.289094 -0.000000 0.195773 
2.958504 0.579320 -0.292893 
-2.132790 -1.057508 -0.787524 
-3.006449 -0.525720 -1.012598 
-2.324719 -0.309011 -1.148212 
-3.006449 0.525720 -1.012598 
-2.132790 1.057508 -0.787524 
-2.324719 0.309011 -1.148212 
-1.492655 -0.956459 -0.948386 
-1.492655 0.956459 -0.948386 
-1.674075 0.000000 -1.148802 
-3.319092 0.000000 -1.368019 
-4.027382 -0.309013 -1.074272 
-4.027382 0.309013 -1.074272 
-1.898967 -1.000000 -0.174375 
-1.327759 -0.954993 -0.612147 
-1.898967 1.000000 -0.174375 
-1.327759 0.954993 -0.612147 
-2.777034 -0.809017 -0.384146 
-2.777034 0.809017 -0.384146 
-2.399294 -0.850640 0.169122 
-2.399294 0.850640 0.169122 
-3.151893 -0.499997 0.073201 
-3.868291 0.000000 -0.279802 
-3.151893 0.499997 0.073201 
-2.349416 -0.499995 0.622171 
-2.349416 0.499995 0.622171 
-2.942668 0.000000 0.510382 
-2.185282 0.000000 0.863405 
-1.471470 -1.681327 -1.317313 
-1.471470 1.681327 -1.317313 
-0.908996 -1.670310 -1.102934 
-0.908996 1.670310 -1.102934 
-0.239422 -2.848627 -1.477946 
-0.239422 2.848627 -1.477946 
-0.983239 -1.666397 -1.263181 
-0.983239 1.666397 -1.263181 
-4.514279 0.000000 -1.385887 
4.348307 -0.000609 -0.591153 
4.530517 -0.725191 -0.364413 
4.540322 0.745939 -0.364502 
5.000688 -0.000000 -0.290474 
5.055072 -0.678307 -0.261650 
5.054000 -0.625516 -0.347000 
5.054000 0.675269 -0.346900 
5.055000 0.735485 -0.262000 
5.371979 -2.818568 -0.219211 
5.465948 2.818568 -0.253413 
3 0 1 2 
3 3 4 5 
3 0 2 6 
3 7 3 5 
3 8 6 2 
3 3 7 9 
3 10 0 6 
3 5 10 7 
3 1 0 11 
3 5 4 11 
3 12 1 11 
3 11 4 13 
3 14 8 2 
3 3 9 15 
3 2 16 14 
3 15 17 3 
3 18 14 16 
3 17 15 19 
3 2 1 16 
3 17 4 3 
3 20 21 22 
3 23 24 25 
3 26 22 21 
3 24 23 27 
3 21 20 8 
3 9 25 24 
3 12 28 16 
3 17 29 13 
3 18 16 28 
3 29 17 19 
3 16 1 12 
3 13 4 17 
3 30 14 18 
3 19 15 31 
3 14 30 21 
3 24 31 15 
3 26 21 30 
3 31 24 27 
3 21 8 14 
3 15 9 24 
3 32 22 26 
3 27 23 32 
3 33 18 28 
3 29 19 34 
3 28 35 33 
3 34 35 29 
3 36 33 35 
3 35 34 36 
3 37 26 30 
3 31 27 38 
3 30 33 37 
3 38 34 31 
3 36 37 33 
3 34 38 36 
3 33 30 18 
3 19 31 34 
3 37 32 26 
3 27 32 38 
3 32 37 39 
3 39 38 32 
3 39 40 41 
3 42 39 41 
3 37 40 39 
3 42 38 39 
3 36 40 37 
3 42 36 38 
3 43 44 45 
3 45 46 47 
3 44 48 45 
3 45 48 46 
3 49 50 43 
3 47 50 49 
3 35 51 52 
3 52 53 35 
3 28 51 35 
3 35 53 29 
3 12 51 28 
3 29 53 13 
3 54 55 56 
3 57 58 59 
3 56 60 54 
3 61 59 58 
3 60 56 62 
3 59 61 62 
3 63 56 55 
3 59 63 57 
3 60 10 6 
3 10 61 7 
3 10 60 62 
3 61 10 62 
3 64 63 55 
3 63 65 57 
3 66 54 67 
3 58 68 69 
3 54 66 70 
3 68 58 71 
3 72 70 66 
3 71 73 68 
3 70 55 54 
3 57 71 58 
3 8 67 6 
3 69 9 7 
3 74 75 64 
3 75 76 65 
3 64 70 74 
3 71 65 76 
3 72 74 70 
3 76 73 71 
3 70 64 55 
3 65 71 57 
3 20 72 66 
3 73 25 68 
3 66 8 20 
3 9 68 25 
3 8 66 67 
3 68 9 69 
3 77 74 72 
3 76 78 73 
3 74 77 79 
3 78 76 79 
3 80 79 77 
3 79 80 78 
3 79 75 74 
3 75 79 76 
3 20 22 77 
3 23 25 78 
3 80 77 22 
3 78 80 23 
3 77 72 20 
3 73 78 25 
3 67 54 81 
3 58 69 82 
3 60 81 54 
3 82 61 58 
3 67 83 6 
3 84 69 7 
3 67 81 83 
3 82 69 84 
3 81 85 83 
3 86 82 84 
3 81 87 85 
3 88 82 86 
3 60 87 81 
3 88 61 82 
3 60 6 87 
3 7 61 88 
3 6 83 87 
3 84 7 88 
3 85 87 83 
3 88 86 84 
3 44 51 12 
3 13 53 46 
3 12 48 44 
3 46 48 13 
3 75 89 64 
3 89 75 65 
3 63 64 89 
3 65 63 89 
3 45 90 43 
3 47 90 45 
3 43 90 91 
3 92 90 47 
3 44 43 50 
3 50 47 46 
3 93 94 95 
3 96 97 93 
3 94 98 95 
3 96 99 97 
3 95 98 91 
3 92 99 96 
3 43 91 49 
3 49 92 47 
3 94 91 98 
3 99 92 97 
3 94 93 49 
3 49 93 97 
3 49 91 94 
3 97 92 49 
3 32 23 22 
3 80 22 23 
3 56 63 59 
3 62 56 59 
3 0 10 5 
3 0 5 11 
3 11 13 12 
3 12 13 48 
3 36 42 40 
3 41 40 42 
3 52 51 44 
3 44 50 52 
3 52 50 46 
3 46 53 52 
3 90 93 95 
3 95 91 90 
3 90 92 96 
3 96 93 90 
