ply
format ascii 1.0
element vertex 75
property float32 x
property float32 y
property float32 z
element face 146
property list uint8 int32 vertex_indices
end_header
-1.103100 -1.578398 -3.175368 
-1.332955 -1.238142 -4.019711 
-0.336504 -1.448430 -3.133717 
-0.336504 1.448430 -3.133717 
-1.332955 1.238142 -4.019711 
-1.103100 1.578398 -3.175368 
-0.503109 -1.027854 -3.175368 
-0.503109 1.027854 -3.175368 
-1.869610 -1.238142 -3.800136 
-1.869610 1.238142 -3.800136 
-1.103100 -0.897886 -3.175368 
-1.103100 0.897886 -3.175368 
-0.176931 -1.244065 -2.303591 
-0.176931 1.244065 -2.303591 
-0.771438 -1.578398 -2.280938 
-0.771438 1.578398 -2.280938 
-1.371429 -1.448430 -2.093508 
-1.371429 1.448430 -2.093508 
-1.371429 -1.027854 -2.093508 
-1.371429 1.027854 -2.093508 
-0.771438 -0.897886 -2.280938 
-0.771438 0.897886 -2.280938 
-3.658098 -1.318402 3.460289 
-2.047489 -0.814810 3.411787 
-3.032290 -1.318402 4.813165 
-3.032290 1.318402 4.813165 
-2.047489 0.814810 3.411787 
-3.658098 1.318402 3.460289 
-4.281618 0.000000 3.749987 
-5.004974 -0.814810 5.078002 
-5.004974 0.814810 5.078002 
-2.300647 0.000000 4.637385 
-3.517544 0.000000 5.685652 
1.284573 -2.022529 -1.668908 
2.679317 -0.772529 -3.012484 
4.323266 -1.314300 -2.751430 
4.323266 1.314300 -2.751430 
2.679317 0.772529 -3.012484 
1.284573 2.022529 -1.668908 
0.577155 0.000000 -2.865512 
5.352570 0.000000 -3.665347 
-3.246851 0.000000 -1.048353 
-1.500423 0.000000 -2.182555 
-2.311498 -1.249992 -1.281237 
-2.311498 1.249992 -1.281237 
-0.093866 -2.500000 -0.023986 
-0.798504 -2.126600 -1.152672 
-0.798504 2.126600 -1.152672 
-0.093866 2.500000 -0.023986 
2.557425 -2.022542 -0.563451 
2.557425 2.022542 -0.563451 
0.553961 -2.126600 1.004293 
0.553961 2.126600 1.004293 
-4.130861 -0.772532 0.393750 
-4.130861 0.772532 0.393750 
-2.439076 -2.022542 0.323952 
-2.439076 2.022542 0.323952 
-4.298729 -1.314300 1.917277 
-4.298729 1.314300 1.917277 
2.446364 -1.249992 0.732920 
5.611001 -1.149521 -2.275235 
4.341306 0.000000 -0.324765 
5.611001 1.149521 -2.275235 
2.446364 1.249992 0.732920 
-1.856484 -2.022529 1.825491 
-1.856484 2.022529 1.825491 
-4.575305 0.000000 1.998979 
-0.313674 -1.249988 2.253033 
-0.313674 1.249988 2.253033 
1.222949 0.000000 1.731716 
-1.724831 0.000000 2.915376 
-4.520410 -0.772529 2.931958 
-4.520410 0.772529 2.931958 
8.285625 0.000000 -3.657822 
-7.045456 0.000000 2.216302 
3 0 1 2 
3 3 4 5 
3 2 1 6 
3 7 4 3 
3 1 0 8 
3 5 4 9 
3 10 1 8 
3 9 4 11 
3 6 1 10 
3 11 4 7 
3 2 6 12 
3 13 7 3 
3 0 2 14 
3 15 3 5 
3 8 0 16 
3 17 5 9 
3 10 8 18 
3 19 9 11 
3 6 10 20 
3 21 11 7 
3 12 14 2 
3 3 15 13 
3 16 0 14 
3 5 17 15 
3 16 18 8 
3 9 19 17 
3 18 20 10 
3 11 21 19 
3 20 12 6 
3 7 13 21 
3 22 23 24 
3 25 26 27 
3 28 22 29 
3 30 27 28 
3 24 23 31 
3 31 26 25 
3 24 29 22 
3 27 30 25 
3 24 31 32 
3 32 31 25 
3 29 24 32 
3 32 25 30 
3 33 34 35 
3 36 37 38 
3 34 33 12 
3 13 38 37 
3 12 39 34 
3 37 39 13 
3 40 35 34 
3 37 36 40 
3 41 42 43 
3 44 42 41 
3 45 46 33 
3 38 47 48 
3 33 49 45 
3 48 50 38 
3 51 45 49 
3 50 48 52 
3 49 33 35 
3 36 38 50 
3 53 41 43 
3 44 41 54 
3 43 55 53 
3 54 56 44 
3 57 53 55 
3 56 54 58 
3 55 43 46 
3 47 44 56 
3 59 60 61 
3 61 62 63 
3 60 59 49 
3 50 63 62 
3 51 49 59 
3 63 50 52 
3 49 35 60 
3 62 36 50 
3 64 45 51 
3 52 48 65 
3 45 64 55 
3 56 65 48 
3 57 55 64 
3 65 56 58 
3 55 46 45 
3 48 47 56 
3 66 53 57 
3 58 54 66 
3 67 51 59 
3 63 52 68 
3 59 69 67 
3 68 69 63 
3 70 67 69 
3 69 68 70 
3 69 59 61 
3 61 63 69 
3 71 57 64 
3 65 58 72 
3 67 64 51 
3 52 65 68 
3 71 66 57 
3 58 66 72 
3 22 28 71 
3 72 28 27 
3 23 22 67 
3 68 27 26 
3 23 67 70 
3 70 68 26 
3 64 67 22 
3 27 68 65 
3 22 71 64 
3 65 72 27 
3 16 43 18 
3 19 44 17 
3 18 43 42 
3 42 44 19 
3 16 46 43 
3 44 47 17 
3 14 46 16 
3 17 47 15 
3 18 42 20 
3 21 42 19 
3 39 12 20 
3 21 13 39 
3 20 42 39 
3 39 42 21 
3 61 60 73 
3 73 62 61 
3 35 40 73 
3 73 40 36 
3 73 60 35 
3 36 62 73 
3 33 46 14 
3 15 47 38 
3 14 12 33 
3 38 13 15 
3 28 29 74 
3 74 30 28 
3 29 30 74 
3 29 32 30 
3 66 71 72 
3 28 72 71 
3 53 66 54 
3 41 53 54 
3 39 37 34 
3 34 37 40 
3 23 70 31 
3 26 31 70 
